<svg width="36" height="36" viewBox="0 0 36 36" fill="none" xmlns="http://www.w3.org/2000/svg">
<g clip-path="url(#clip0_3_166)">
<path d="M9.58247 35.4363H26.4175L28.8226 14.9937H7.17743L9.58247 35.4363Z" fill="#FF8C78"/>
<path d="M7.88928 21.0438H28.1107L26.8375 31.8664H9.1625L7.88928 21.0438Z" fill="#F6F6F7"/>
<path d="M7.46487 17.4363L7.17757 14.9937H28.8226L28.5354 17.4363L26.4176 35.4363H19.3096C23.6423 31.4145 26.4176 25.2336 26.4176 18.3006C26.4176 18.011 26.4113 17.7232 26.4016 17.4363H7.46487Z" fill="#DF7A6E"/>
<path d="M28.1107 21.0814L26.8375 31.9039H9.1625L7.88928 21.0814H28.1107Z" fill="white"/>
<path d="M26.8375 31.8664H22.3632C24.441 28.8101 25.8327 25.0993 26.2694 21.0438H28.1108L26.8375 31.8664Z" fill="#ECEDEF"/>
<path d="M7.77874 11.3862H28.2213L27.0188 6.57617H8.98123L7.77874 11.3862Z" fill="#B3B9BF"/>
<path d="M4.77239 10.7849H31.2275V15.595H4.77239V10.7849Z" fill="#ECEDEF"/>
<path d="M28.1837 10.7849H31.2275V15.595H28.1837V10.7849Z" fill="#D9DCDF"/>
<path d="M13.7911 10.7849H17.3988C17.3988 12.3883 17.3988 13.9916 17.3988 15.595H13.7319C13.7848 13.992 13.7905 12.3751 13.7911 10.7849Z" fill="#F6F6F7"/>
<path d="M20.405 8.37991H25.215V10.785H20.405V8.37991Z" fill="#424F5E"/>
<path d="M20.405 8.37991H25.215V9.5824H20.405V8.37991Z" fill="#68727E"/>
<path d="M4.77246 10.2212H7.48891L8.4344 6.43942C8.49719 6.18847 8.72261 6.01248 8.98122 6.01248H27.0188C27.2774 6.01248 27.5029 6.18847 27.5656 6.43942L28.5111 10.2212H31.2275C31.5389 10.2212 31.7912 10.4736 31.7912 10.7849V15.5949C31.7912 15.9062 31.5389 16.1586 31.2275 16.1586H29.253L26.9774 35.5022C26.944 35.786 26.7033 36 26.4176 36H9.58254C9.29672 36 9.05611 35.786 9.02278 35.5022L8.10323 27.6859C8.06688 27.3767 8.28794 27.0966 8.59718 27.0602C8.9062 27.0238 9.18654 27.2449 9.22275 27.5541L9.66375 31.3026H26.3362L27.4769 21.6074H8.52314L8.93981 25.1492C8.97616 25.4583 8.7551 25.7384 8.44586 25.7749C8.42343 25.7775 8.40129 25.7788 8.37928 25.7788C8.09747 25.7788 7.8539 25.5678 7.82029 25.281L6.74705 16.1588H4.77246C4.46111 16.1588 4.20876 15.9064 4.20876 15.5951V10.7851C4.20876 10.4737 4.46119 10.2212 4.77246 10.2212ZM26.5788 7.13987H9.42131L8.65097 10.2213H19.8413V8.37997C19.8413 8.0687 20.0936 7.81628 20.405 7.81628H25.215C25.5264 7.81628 25.7787 8.06863 25.7787 8.37997V10.2213H27.349L26.5788 7.13987ZM20.9687 10.2212H24.6513V8.9436H20.9687V10.2212ZM9.79636 32.43L10.0837 34.8726H25.9163L26.2036 32.43H9.79636ZM5.33615 15.0313H22.2088C22.5201 15.0313 22.7725 15.2836 22.7725 15.5949C22.7725 15.9062 22.5202 16.1586 22.2088 16.1586H7.88203L8.39046 20.4801H27.6095L28.118 16.1586H25.215C24.9037 16.1586 24.6513 15.9063 24.6513 15.5949C24.6513 15.2837 24.9036 15.0313 25.215 15.0313H30.6639V11.3486H5.33615V15.0313Z" fill="black"/>
<path d="M18.3987 5.17099C18.1694 5.40021 17.7823 5.38481 17.5715 5.13865C17.3827 4.91808 17.3962 4.57903 17.6014 4.37386C17.9639 4.01133 17.9097 3.84799 17.4715 3.17559C17.0466 2.52324 16.3352 1.43135 17.6014 0.165094C17.8216 -0.0550542 18.3253 -0.0550676 18.5454 0.165081C18.7656 0.385229 18.6187 0.742149 18.3986 0.962227C17.8026 1.5582 17.9629 1.86434 18.4161 2.56015C18.7987 3.14747 19.4392 4.13044 18.3987 5.17099Z" fill="black"/>
<path d="M14.143 5.17098C13.9137 5.4002 13.5266 5.3848 13.3159 5.13864C13.127 4.91807 13.1406 4.57902 13.3457 4.37385C13.7083 4.01132 13.6541 3.84798 13.2159 3.17558C12.7909 2.52322 12.0795 1.43134 13.3457 0.165081C13.566 -0.0550676 13.9228 -0.0550676 14.1429 0.165081C14.3631 0.385229 14.3631 0.742136 14.1429 0.962214C13.547 1.55818 13.7072 1.86432 14.1604 2.56014C14.5431 3.14746 15.1835 4.13042 14.143 5.17098Z" fill="black"/>
<path d="M22.5605 5.17098C22.3312 5.4002 21.9442 5.3848 21.7334 5.13864C21.5445 4.91807 21.5581 4.57902 21.7633 4.37385C22.1258 4.01132 22.0716 3.84798 21.6334 3.17558C21.2084 2.52322 20.4971 1.43134 21.7633 0.165081C21.9835 -0.0550676 22.3403 -0.0550676 22.5605 0.165081C22.7806 0.385229 22.7806 0.742136 22.5605 0.962214C21.9645 1.55818 22.1247 1.86432 22.578 2.56014C22.9606 3.14746 23.601 4.13042 22.5605 5.17098Z" fill="black"/>
<path d="M17.4261 27.4308C17.4261 27.6977 17.3708 27.9402 17.2601 28.1583C17.1494 28.3731 17.0013 28.5587 16.8158 28.7149C16.6302 28.8712 16.417 28.9916 16.1761 29.0763C15.9352 29.1609 15.6846 29.2032 15.4242 29.2032C15.0661 29.2032 14.7373 29.1365 14.4378 29.003C14.1384 28.8696 13.9007 28.6726 13.7249 28.4122V29.0909H13.1585V27.1524H13.7249C13.7249 27.3705 13.7754 27.5707 13.8763 27.753C13.9772 27.9321 14.1058 28.0867 14.2621 28.2169C14.4183 28.3471 14.5973 28.4496 14.7992 28.5245C15.0042 28.5961 15.2126 28.6319 15.4242 28.6319C15.613 28.6319 15.7871 28.6059 15.9466 28.5538C16.1061 28.4985 16.2461 28.422 16.3665 28.3243C16.487 28.2234 16.5814 28.1013 16.6498 27.9581C16.7214 27.8149 16.7572 27.6521 16.7572 27.4698C16.7572 27.2647 16.7116 27.089 16.6205 26.9425C16.5326 26.796 16.4121 26.6707 16.2591 26.5665C16.1094 26.4623 15.9401 26.3744 15.7513 26.3028C15.5625 26.228 15.3705 26.1547 15.1751 26.0831C14.944 26.0017 14.7129 25.9171 14.4818 25.8292C14.2507 25.738 14.044 25.6241 13.8617 25.4874C13.6794 25.3507 13.5313 25.1847 13.4173 24.9893C13.3034 24.7908 13.2464 24.545 13.2464 24.252C13.2464 23.9916 13.3018 23.7605 13.4124 23.5587C13.5231 23.3536 13.668 23.1811 13.847 23.0411C14.0261 22.9011 14.2344 22.7953 14.472 22.7237C14.7096 22.6489 14.9538 22.6114 15.2044 22.6114C15.5137 22.6114 15.7985 22.6749 16.0589 22.8018C16.3226 22.9288 16.5277 23.1225 16.6742 23.3829V22.7188H17.265V24.5401H16.6742C16.6742 24.3481 16.6335 24.169 16.5521 24.003C16.474 23.8338 16.3665 23.6905 16.2298 23.5733C16.0931 23.4529 15.9369 23.3585 15.7611 23.2901C15.5853 23.2185 15.3998 23.1827 15.2044 23.1827C15.0319 23.1827 14.8675 23.2022 14.7113 23.2413C14.555 23.2804 14.4183 23.3438 14.3011 23.4317C14.1839 23.5164 14.0895 23.627 14.0179 23.7638C13.9496 23.9005 13.9154 24.0632 13.9154 24.252C13.9154 24.4181 13.9561 24.5597 14.0374 24.6768C14.1221 24.794 14.2344 24.8982 14.3744 24.9893C14.5143 25.0772 14.6755 25.1586 14.8578 25.2335C15.0433 25.3051 15.2321 25.3783 15.4242 25.4532C15.6651 25.5379 15.9043 25.6323 16.1419 25.7364C16.3796 25.8406 16.5928 25.9659 16.7816 26.1124C16.9704 26.2589 17.125 26.4395 17.2455 26.6544C17.3659 26.866 17.4261 27.1248 17.4261 27.4308ZM22.9851 27.4308C22.9851 27.6977 22.9298 27.9402 22.8191 28.1583C22.7084 28.3731 22.5603 28.5587 22.3748 28.7149C22.1892 28.8712 21.976 28.9916 21.7351 29.0763C21.4942 29.1609 21.2436 29.2032 20.9831 29.2032C20.6251 29.2032 20.2963 29.1365 19.9968 29.003C19.6973 28.8696 19.4597 28.6726 19.2839 28.4122V29.0909H18.7175V27.1524H19.2839C19.2839 27.3705 19.3344 27.5707 19.4353 27.753C19.5362 27.9321 19.6648 28.0867 19.821 28.2169C19.9773 28.3471 20.1563 28.4496 20.3581 28.5245C20.5632 28.5961 20.7716 28.6319 20.9831 28.6319C21.172 28.6319 21.3461 28.6059 21.5056 28.5538C21.6651 28.4985 21.8051 28.422 21.9255 28.3243C22.046 28.2234 22.1404 28.1013 22.2087 27.9581C22.2804 27.8149 22.3162 27.6521 22.3162 27.4698C22.3162 27.2647 22.2706 27.089 22.1794 26.9425C22.0915 26.796 21.9711 26.6707 21.8181 26.5665C21.6684 26.4623 21.4991 26.3744 21.3103 26.3028C21.1215 26.228 20.9294 26.1547 20.7341 26.0831C20.503 26.0017 20.2719 25.9171 20.0408 25.8292C19.8096 25.738 19.6029 25.6241 19.4206 25.4874C19.2384 25.3507 19.0902 25.1847 18.9763 24.9893C18.8624 24.7908 18.8054 24.545 18.8054 24.252C18.8054 23.9916 18.8608 23.7605 18.9714 23.5587C19.0821 23.3536 19.227 23.1811 19.406 23.0411C19.585 22.9011 19.7934 22.7953 20.031 22.7237C20.2686 22.6489 20.5128 22.6114 20.7634 22.6114C21.0727 22.6114 21.3575 22.6749 21.6179 22.8018C21.8816 22.9288 22.0867 23.1225 22.2331 23.3829V22.7188H22.824V24.5401H22.2331C22.2331 24.3481 22.1925 24.169 22.1111 24.003C22.033 23.8338 21.9255 23.6905 21.7888 23.5733C21.6521 23.4529 21.4958 23.3585 21.3201 23.2901C21.1443 23.2185 20.9587 23.1827 20.7634 23.1827C20.5909 23.1827 20.4265 23.2022 20.2703 23.2413C20.114 23.2804 19.9773 23.3438 19.8601 23.4317C19.7429 23.5164 19.6485 23.627 19.5769 23.7638C19.5085 23.9005 19.4744 24.0632 19.4744 24.252C19.4744 24.4181 19.5151 24.5597 19.5964 24.6768C19.6811 24.794 19.7934 24.8982 19.9333 24.9893C20.0733 25.0772 20.2345 25.1586 20.4167 25.2335C20.6023 25.3051 20.7911 25.3783 20.9831 25.4532C21.224 25.5379 21.4633 25.6323 21.7009 25.7364C21.9386 25.8406 22.1518 25.9659 22.3406 26.1124C22.5294 26.2589 22.684 26.4395 22.8044 26.6544C22.9249 26.866 22.9851 27.1248 22.9851 27.4308Z" fill="#E98E86"/>
</g>
<defs>
<clipPath id="clip0_3_166">
<rect width="36" height="36" fill="white" transform="matrix(-1 0 0 1 36 0)"/>
</clipPath>
</defs>
</svg>
