<svg width="64" height="64" viewBox="0 0 64 64" fill="none" xmlns="http://www.w3.org/2000/svg">
<circle cx="32" cy="32" r="32" fill="#F2D8B3"/>
<g clip-path="url(#clip0_4_278)">
<path d="M24.7839 47.4833H40.2161L42.4207 28.7442H22.5793L24.7839 47.4833Z" fill="#FF8C78"/>
<path d="M23.2318 34.2902H41.7682L40.601 44.2109H24.3989L23.2318 34.2902Z" fill="#F6F6F7"/>
<path d="M22.8428 30.9833L22.5794 28.7442H42.4207L42.1574 30.9833L40.2161 47.4833H33.7005C37.6721 43.7966 40.2161 38.1308 40.2161 31.7755C40.2161 31.5101 40.2103 31.2462 40.2015 30.9833H22.8428V30.9833Z" fill="#DF7A6E"/>
<path d="M41.7682 34.3246L40.601 44.2453H24.3989L23.2318 34.3246H41.7682Z" fill="white"/>
<path d="M40.6011 44.2109H36.4996C38.4043 41.4093 39.68 38.0077 40.0803 34.2902H41.7682L40.6011 44.2109Z" fill="#ECEDEF"/>
<path d="M23.1305 25.4373H41.8696L40.7672 21.0282H24.2328L23.1305 25.4373Z" fill="#B3B9BF"/>
<path d="M20.3747 24.8862H44.6252V29.2954H20.3747V24.8862Z" fill="#ECEDEF"/>
<path d="M41.8351 24.8862H44.6252V29.2954H41.8351V24.8862Z" fill="#D9DCDF"/>
<path d="M28.6418 24.8862H31.9489C31.9489 26.3559 31.9489 27.8256 31.9489 29.2954H28.5876C28.636 27.826 28.6413 26.3438 28.6418 24.8862Z" fill="#F6F6F7"/>
<path d="M34.7046 22.6816H39.1138V24.8862H34.7046V22.6816Z" fill="#424F5E"/>
<path d="M34.7046 22.6816H39.1138V23.7839H34.7046V22.6816Z" fill="#68727E"/>
<path d="M20.3748 24.3695H22.8648L23.7315 20.9028C23.7891 20.6728 23.9957 20.5114 24.2328 20.5114H40.7672C41.0043 20.5114 41.211 20.6728 41.2685 20.9028L42.1352 24.3695H44.6252C44.9106 24.3695 45.142 24.6008 45.142 24.8862V29.2954C45.142 29.5807 44.9107 29.8121 44.6252 29.8121H42.8153L40.7292 47.5437C40.6986 47.8039 40.4781 48 40.2161 48H24.784C24.522 48 24.3014 47.8039 24.2709 47.5437L23.428 40.3787C23.3946 40.0953 23.5973 39.8385 23.8808 39.8052C24.164 39.7718 24.421 39.9745 24.4542 40.2579L24.8584 43.6941H40.1416L41.1872 34.8068H23.8129L24.1948 38.0534C24.2282 38.3368 24.0255 38.5936 23.742 38.627C23.7215 38.6293 23.7012 38.6306 23.681 38.6306C23.4227 38.6306 23.1994 38.4371 23.1686 38.1742L22.1848 29.8122H20.3748C20.0894 29.8122 19.858 29.5809 19.858 29.2955V24.8863C19.858 24.6009 20.0894 24.3695 20.3748 24.3695ZM40.3639 21.5449H24.6362L23.9301 24.3695H34.1879V22.6816C34.1879 22.3963 34.4192 22.1649 34.7046 22.1649H39.1138C39.3992 22.1649 39.6305 22.3962 39.6305 22.6816V24.3695H41.0699L40.3639 21.5449ZM35.2213 24.3695H38.5971V23.1983H35.2213V24.3695ZM24.98 44.7275L25.2434 46.9666H39.7567L40.02 44.7275H24.98ZM20.8915 28.7787H36.358C36.6434 28.7787 36.8748 29.01 36.8748 29.2954C36.8748 29.5807 36.6435 29.8121 36.358 29.8121H23.2252L23.6913 33.7734H41.3087L41.7748 29.8121H39.1138C38.8284 29.8121 38.5971 29.5808 38.5971 29.2954C38.5971 29.01 38.8283 28.7787 39.1138 28.7787H44.1086V25.4029H20.8915V28.7787Z" fill="black"/>
<path d="M32.8655 19.7401C32.6553 19.9502 32.3005 19.9361 32.1072 19.7104C31.9341 19.5082 31.9465 19.1974 32.1346 19.0094C32.4669 18.677 32.4172 18.5273 32.0156 17.911C31.626 17.313 30.9739 16.3121 32.1346 15.1513C32.3365 14.9495 32.7982 14.9495 33 15.1513C33.2018 15.3531 33.0672 15.6803 32.8654 15.882C32.3191 16.4283 32.466 16.709 32.8814 17.3468C33.2322 17.8852 33.8192 18.7862 32.8655 19.7401Z" fill="black"/>
<path d="M28.9644 19.7401C28.7542 19.9502 28.3994 19.9361 28.2062 19.7104C28.0331 19.5082 28.0455 19.1974 28.2336 19.0094C28.5659 18.677 28.5162 18.5273 28.1145 17.9109C27.725 17.313 27.0729 16.3121 28.2336 15.1513C28.4355 14.9495 28.7626 14.9495 28.9644 15.1513C29.1662 15.3531 29.1662 15.6803 28.9644 15.882C28.4181 16.4283 28.5649 16.709 28.9804 17.3468C29.3312 17.8852 29.9182 18.7862 28.9644 19.7401Z" fill="black"/>
<path d="M36.6805 19.7401C36.4703 19.9502 36.1155 19.9361 35.9223 19.7104C35.7491 19.5082 35.7616 19.1974 35.9497 19.0094C36.282 18.677 36.2323 18.5273 35.8306 17.9109C35.4411 17.313 34.789 16.3121 35.9497 15.1513C36.1515 14.9495 36.4786 14.9495 36.6804 15.1513C36.8822 15.3531 36.8822 15.6803 36.6804 15.882C36.1341 16.4283 36.281 16.709 36.6965 17.3468C37.0472 17.8852 37.6343 18.7862 36.6805 19.7401Z" fill="black"/>
<path d="M31.8807 40.3398C31.8807 40.6068 31.8253 40.8493 31.7146 41.0674C31.604 41.2822 31.4559 41.4678 31.2703 41.624C31.0848 41.7803 30.8715 41.9007 30.6307 41.9854C30.3898 42.07 30.1391 42.1123 29.8787 42.1123C29.5206 42.1123 29.1919 42.0456 28.8924 41.9121C28.5929 41.7786 28.3553 41.5817 28.1795 41.3213V42H27.6131V40.0615H28.1795C28.1795 40.2796 28.2299 40.4798 28.3309 40.6621C28.4318 40.8411 28.5604 40.9958 28.7166 41.126C28.8729 41.2562 29.0519 41.3587 29.2537 41.4336C29.4588 41.5052 29.6671 41.541 29.8787 41.541C30.0675 41.541 30.2417 41.515 30.4012 41.4629C30.5607 41.4076 30.7007 41.3311 30.8211 41.2334C30.9415 41.1325 31.0359 41.0104 31.1043 40.8672C31.1759 40.724 31.2117 40.5612 31.2117 40.3789C31.2117 40.1738 31.1661 39.998 31.075 39.8516C30.9871 39.7051 30.8667 39.5798 30.7137 39.4756C30.5639 39.3714 30.3947 39.2835 30.2059 39.2119C30.0171 39.137 29.825 39.0638 29.6297 38.9922C29.3986 38.9108 29.1674 38.8262 28.9363 38.7383C28.7052 38.6471 28.4985 38.5332 28.3162 38.3965C28.1339 38.2598 27.9858 38.0938 27.8719 37.8984C27.7579 37.6999 27.701 37.4541 27.701 37.1611C27.701 36.9007 27.7563 36.6696 27.867 36.4678C27.9777 36.2627 28.1225 36.0902 28.3016 35.9502C28.4806 35.8102 28.6889 35.7044 28.9266 35.6328C29.1642 35.5579 29.4083 35.5205 29.659 35.5205C29.9682 35.5205 30.2531 35.584 30.5135 35.7109C30.7771 35.8379 30.9822 36.0316 31.1287 36.292V35.6279H31.7195V37.4492H31.1287C31.1287 37.2572 31.088 37.0781 31.0066 36.9121C30.9285 36.7428 30.8211 36.5996 30.6844 36.4824C30.5477 36.362 30.3914 36.2676 30.2156 36.1992C30.0398 36.1276 29.8543 36.0918 29.659 36.0918C29.4865 36.0918 29.3221 36.1113 29.1658 36.1504C29.0096 36.1895 28.8729 36.2529 28.7557 36.3408C28.6385 36.4255 28.5441 36.5361 28.4725 36.6729C28.4041 36.8096 28.3699 36.9723 28.3699 37.1611C28.3699 37.3271 28.4106 37.4688 28.492 37.5859C28.5766 37.7031 28.6889 37.8073 28.8289 37.8984C28.9689 37.9863 29.13 38.0677 29.3123 38.1426C29.4979 38.2142 29.6867 38.2874 29.8787 38.3623C30.1196 38.4469 30.3589 38.5413 30.5965 38.6455C30.8341 38.7497 31.0473 38.875 31.2361 39.0215C31.4249 39.168 31.5796 39.3486 31.7 39.5635C31.8204 39.7751 31.8807 40.0339 31.8807 40.3398ZM37.4396 40.3398C37.4396 40.6068 37.3843 40.8493 37.2736 41.0674C37.163 41.2822 37.0148 41.4678 36.8293 41.624C36.6437 41.7803 36.4305 41.9007 36.1896 41.9854C35.9488 42.07 35.6981 42.1123 35.4377 42.1123C35.0796 42.1123 34.7508 42.0456 34.4514 41.9121C34.1519 41.7786 33.9143 41.5817 33.7385 41.3213V42H33.1721V40.0615H33.7385C33.7385 40.2796 33.7889 40.4798 33.8898 40.6621C33.9908 40.8411 34.1193 40.9958 34.2756 41.126C34.4318 41.2562 34.6109 41.3587 34.8127 41.4336C35.0178 41.5052 35.2261 41.541 35.4377 41.541C35.6265 41.541 35.8007 41.515 35.9602 41.4629C36.1197 41.4076 36.2596 41.3311 36.3801 41.2334C36.5005 41.1325 36.5949 41.0104 36.6633 40.8672C36.7349 40.724 36.7707 40.5612 36.7707 40.3789C36.7707 40.1738 36.7251 39.998 36.634 39.8516C36.5461 39.7051 36.4257 39.5798 36.2727 39.4756C36.1229 39.3714 35.9536 39.2835 35.7648 39.2119C35.576 39.137 35.384 39.0638 35.1887 38.9922C34.9576 38.9108 34.7264 38.8262 34.4953 38.7383C34.2642 38.6471 34.0575 38.5332 33.8752 38.3965C33.6929 38.2598 33.5448 38.0938 33.4309 37.8984C33.3169 37.6999 33.26 37.4541 33.26 37.1611C33.26 36.9007 33.3153 36.6696 33.426 36.4678C33.5367 36.2627 33.6815 36.0902 33.8605 35.9502C34.0396 35.8102 34.2479 35.7044 34.4855 35.6328C34.7232 35.5579 34.9673 35.5205 35.218 35.5205C35.5272 35.5205 35.812 35.584 36.0725 35.7109C36.3361 35.8379 36.5412 36.0316 36.6877 36.292V35.6279H37.2785V37.4492H36.6877C36.6877 37.2572 36.647 37.0781 36.5656 36.9121C36.4875 36.7428 36.3801 36.5996 36.2434 36.4824C36.1066 36.362 35.9504 36.2676 35.7746 36.1992C35.5988 36.1276 35.4133 36.0918 35.218 36.0918C35.0454 36.0918 34.8811 36.1113 34.7248 36.1504C34.5686 36.1895 34.4318 36.2529 34.3146 36.3408C34.1975 36.4255 34.1031 36.5361 34.0314 36.6729C33.9631 36.8096 33.9289 36.9723 33.9289 37.1611C33.9289 37.3271 33.9696 37.4688 34.051 37.5859C34.1356 37.7031 34.2479 37.8073 34.3879 37.8984C34.5279 37.9863 34.689 38.0677 34.8713 38.1426C35.0568 38.2142 35.2456 38.2874 35.4377 38.3623C35.6786 38.4469 35.9178 38.5413 36.1555 38.6455C36.3931 38.7497 36.6063 38.875 36.7951 39.0215C36.9839 39.168 37.1385 39.3486 37.259 39.5635C37.3794 39.7751 37.4396 40.0339 37.4396 40.3398Z" fill="#E98E86"/>
</g>
<path d="M58.2344 33.1758C56.0781 33.1758 55 34.1602 55 36.1289V43.6172C55 44.3438 54.877 45.0059 54.6309 45.6035C54.3965 46.2012 54.0566 46.7227 53.6113 47.168C53.166 47.6133 52.6445 47.9531 52.0469 48.1875C51.4492 48.4336 50.793 48.5566 50.0781 48.5566H48.4434V46.5703H50.0781C52.0352 46.5703 53.0137 45.5859 53.0137 43.6172V36.1289C53.0137 35.7188 53.0898 35.2969 53.2422 34.8633C53.4062 34.418 53.623 34.0078 53.8926 33.6328C54.1738 33.2578 54.502 32.9473 54.877 32.7012C55.252 32.4434 55.6562 32.2793 56.0898 32.209C55.6562 32.1152 55.2461 31.9395 54.8594 31.6816C54.4727 31.4121 54.1445 31.0898 53.875 30.7148C53.6172 30.3398 53.4062 29.9355 53.2422 29.502C53.0898 29.0684 53.0137 28.6523 53.0137 28.2539V20.6953C53.0137 18.7266 52.0352 17.7422 50.0781 17.7422H48.4434V15.791H50.0781C50.793 15.791 51.4492 15.9199 52.0469 16.1777C52.6445 16.4238 53.166 16.7637 53.6113 17.1973C54.0566 17.6309 54.3965 18.1465 54.6309 18.7441C54.877 19.3418 55 19.9922 55 20.6953V28.2539C55 30.2227 56.0781 31.207 58.2344 31.207V33.1758Z" fill="#FF8C78"/>
<path d="M15.7344 48.5566H14.1172C13.4023 48.5566 12.7402 48.4277 12.1309 48.1699C11.5332 47.9238 11.0176 47.584 10.584 47.1504C10.1621 46.7168 9.82812 46.1953 9.58203 45.5859C9.34766 44.9766 9.23047 44.3086 9.23047 43.582V36.1289C9.23047 34.1602 8.13477 33.1758 5.94336 33.1758V31.207C8.13477 31.207 9.23047 30.2227 9.23047 28.2539V20.6953C9.23047 19.9688 9.34766 19.3066 9.58203 18.709C9.82812 18.1113 10.1621 17.5957 10.584 17.1621C11.0176 16.7285 11.5332 16.3945 12.1309 16.1602C12.7402 15.9141 13.4023 15.791 14.1172 15.791H15.7344V17.7422H14.1172C12.125 17.7422 11.1289 18.7266 11.1289 20.6953V28.2539C11.1289 28.6523 11.0527 29.0684 10.9004 29.502C10.748 29.9355 10.5371 30.3398 10.2676 30.7148C10.0098 31.0898 9.69336 31.418 9.31836 31.6992C8.94336 31.9688 8.53906 32.1387 8.10547 32.209C8.53906 32.2793 8.9375 32.4492 9.30078 32.7188C9.66406 32.9766 9.98047 33.293 10.25 33.668C10.5312 34.043 10.748 34.4473 10.9004 34.8809C11.0527 35.3027 11.1289 35.7188 11.1289 36.1289V43.582C11.1289 45.5742 12.125 46.5703 14.1172 46.5703H15.7344V48.5566Z" fill="#FF8C78"/>
<defs>
<clipPath id="clip0_4_278">
<rect width="33" height="33" fill="white" transform="matrix(-1 0 0 1 49 15)"/>
</clipPath>
</defs>
</svg>
